<svg width="157" height="54" viewBox="0 0 157 54" fill="none" xmlns="http://www.w3.org/2000/svg">
<path d="M59 16.8631C59 37.2211 42.4905 53.7245 22.125 53.7245C1.7595 53.7245 0 57.495 0 37.137C0 16.7789 16.5095 0.275467 36.875 0.275467C57.2405 0.275467 59 -3.49499 59 16.8631Z" fill="#5BC0BE"/>
<path d="M73.9463 10.2031V23H71.3184V10.2031H73.9463ZM78.7363 15.5205V23H76.2051V13.4902H78.5781L78.7363 15.5205ZM78.3672 17.9111H77.6816C77.6816 17.208 77.7725 16.5752 77.9541 16.0127C78.1357 15.4443 78.3906 14.9609 78.7188 14.5625C79.0469 14.1582 79.4365 13.8506 79.8877 13.6396C80.3447 13.4229 80.8545 13.3145 81.417 13.3145C81.8623 13.3145 82.2695 13.3789 82.6387 13.5078C83.0078 13.6367 83.3242 13.8418 83.5879 14.123C83.8574 14.4043 84.0625 14.7764 84.2031 15.2393C84.3496 15.7021 84.4229 16.2676 84.4229 16.9355V23H81.874V16.9268C81.874 16.5049 81.8154 16.1768 81.6982 15.9424C81.5811 15.708 81.4082 15.5439 81.1797 15.4502C80.957 15.3506 80.6816 15.3008 80.3535 15.3008C80.0137 15.3008 79.7178 15.3682 79.4658 15.5029C79.2197 15.6377 79.0146 15.8252 78.8506 16.0654C78.6924 16.2998 78.5723 16.5752 78.4902 16.8916C78.4082 17.208 78.3672 17.5479 78.3672 17.9111ZM91.0059 13.4902V15.2832H85.4688V13.4902H91.0059ZM86.8398 11.1436H89.3711V20.1348C89.3711 20.4102 89.4062 20.6211 89.4766 20.7676C89.5527 20.9141 89.6641 21.0166 89.8105 21.0752C89.957 21.1279 90.1416 21.1543 90.3643 21.1543C90.5225 21.1543 90.6631 21.1484 90.7861 21.1367C90.915 21.1191 91.0234 21.1016 91.1113 21.084L91.1201 22.9473C90.9033 23.0176 90.6689 23.0732 90.417 23.1143C90.165 23.1553 89.8867 23.1758 89.582 23.1758C89.0254 23.1758 88.5391 23.085 88.123 22.9033C87.7129 22.7158 87.3965 22.417 87.1738 22.0068C86.9512 21.5967 86.8398 21.0576 86.8398 20.3896V11.1436ZM96.8242 23.1758C96.0859 23.1758 95.4238 23.0586 94.8379 22.8242C94.252 22.584 93.7539 22.2529 93.3438 21.8311C92.9395 21.4092 92.6289 20.9199 92.4121 20.3633C92.1953 19.8008 92.0869 19.2031 92.0869 18.5703V18.2188C92.0869 17.498 92.1895 16.8389 92.3945 16.2412C92.5996 15.6436 92.8926 15.125 93.2734 14.6855C93.6602 14.2461 94.1289 13.9092 94.6797 13.6748C95.2305 13.4346 95.8516 13.3145 96.543 13.3145C97.2168 13.3145 97.8145 13.4258 98.3359 13.6484C98.8574 13.8711 99.2939 14.1875 99.6455 14.5977C100.003 15.0078 100.272 15.5 100.454 16.0742C100.636 16.6426 100.727 17.2754 100.727 17.9727V19.0273H93.168V17.3398H98.2393V17.1465C98.2393 16.7949 98.1748 16.4814 98.0459 16.2061C97.9229 15.9248 97.7354 15.7021 97.4834 15.5381C97.2314 15.374 96.9092 15.292 96.5166 15.292C96.1826 15.292 95.8955 15.3652 95.6553 15.5117C95.415 15.6582 95.2188 15.8633 95.0664 16.127C94.9199 16.3906 94.8086 16.7012 94.7324 17.0586C94.6621 17.4102 94.627 17.7969 94.627 18.2188V18.5703C94.627 18.9512 94.6797 19.3027 94.7852 19.625C94.8965 19.9473 95.0518 20.2256 95.251 20.46C95.4561 20.6943 95.7021 20.876 95.9893 21.0049C96.2822 21.1338 96.6133 21.1982 96.9824 21.1982C97.4395 21.1982 97.8643 21.1104 98.2568 20.9346C98.6553 20.7529 98.998 20.4805 99.2852 20.1172L100.516 21.4531C100.316 21.7402 100.044 22.0156 99.6982 22.2793C99.3584 22.543 98.9482 22.7598 98.4678 22.9297C97.9873 23.0938 97.4395 23.1758 96.8242 23.1758ZM104.699 15.5645V23H102.168V13.4902H104.55L104.699 15.5645ZM107.564 13.4287L107.521 15.7754C107.397 15.7578 107.248 15.7432 107.072 15.7314C106.902 15.7139 106.747 15.7051 106.606 15.7051C106.249 15.7051 105.938 15.752 105.675 15.8457C105.417 15.9336 105.2 16.0654 105.024 16.2412C104.854 16.417 104.726 16.6309 104.638 16.8828C104.556 17.1348 104.509 17.4219 104.497 17.7441L103.987 17.5859C103.987 16.9707 104.049 16.4053 104.172 15.8896C104.295 15.3682 104.474 14.9141 104.708 14.5273C104.948 14.1406 105.241 13.8418 105.587 13.6309C105.933 13.4199 106.328 13.3145 106.773 13.3145C106.914 13.3145 107.058 13.3262 107.204 13.3496C107.351 13.3672 107.471 13.3936 107.564 13.4287ZM113.594 20.8555V16.6191C113.594 16.3145 113.544 16.0537 113.444 15.8369C113.345 15.6143 113.189 15.4414 112.979 15.3184C112.773 15.1953 112.507 15.1338 112.179 15.1338C111.897 15.1338 111.654 15.1836 111.449 15.2832C111.244 15.377 111.086 15.5146 110.975 15.6963C110.863 15.8721 110.808 16.0801 110.808 16.3203H108.276C108.276 15.916 108.37 15.5322 108.558 15.1689C108.745 14.8057 109.018 14.4863 109.375 14.2109C109.732 13.9297 110.157 13.71 110.649 13.5518C111.147 13.3936 111.704 13.3145 112.319 13.3145C113.058 13.3145 113.714 13.4375 114.288 13.6836C114.862 13.9297 115.313 14.2988 115.642 14.791C115.976 15.2832 116.143 15.8984 116.143 16.6367V20.7061C116.143 21.2275 116.175 21.6553 116.239 21.9893C116.304 22.3174 116.397 22.6045 116.521 22.8506V23H113.963C113.84 22.7422 113.746 22.4199 113.682 22.0332C113.623 21.6406 113.594 21.248 113.594 20.8555ZM113.928 17.208L113.945 18.6406H112.53C112.196 18.6406 111.906 18.6787 111.66 18.7549C111.414 18.8311 111.212 18.9395 111.054 19.0801C110.896 19.2148 110.778 19.373 110.702 19.5547C110.632 19.7363 110.597 19.9355 110.597 20.1523C110.597 20.3691 110.646 20.5654 110.746 20.7412C110.846 20.9111 110.989 21.0459 111.177 21.1455C111.364 21.2393 111.584 21.2861 111.836 21.2861C112.217 21.2861 112.548 21.21 112.829 21.0576C113.11 20.9053 113.327 20.7178 113.479 20.4951C113.638 20.2725 113.72 20.0615 113.726 19.8623L114.394 20.9346C114.3 21.1748 114.171 21.4238 114.007 21.6816C113.849 21.9395 113.646 22.1826 113.4 22.4111C113.154 22.6338 112.858 22.8184 112.513 22.9648C112.167 23.1055 111.757 23.1758 111.282 23.1758C110.679 23.1758 110.131 23.0557 109.639 22.8154C109.152 22.5693 108.766 22.2324 108.479 21.8047C108.197 21.3711 108.057 20.8789 108.057 20.3281C108.057 19.8301 108.15 19.3877 108.338 19.001C108.525 18.6143 108.801 18.2891 109.164 18.0254C109.533 17.7559 109.993 17.5537 110.544 17.4189C111.095 17.2783 111.733 17.208 112.46 17.208H113.928ZM122.022 21.1982C122.333 21.1982 122.608 21.1396 122.849 21.0225C123.089 20.8994 123.276 20.7295 123.411 20.5127C123.552 20.29 123.625 20.0293 123.631 19.7305H126.013C126.007 20.3984 125.828 20.9932 125.477 21.5146C125.125 22.0303 124.653 22.4375 124.062 22.7363C123.47 23.0293 122.808 23.1758 122.075 23.1758C121.337 23.1758 120.692 23.0527 120.142 22.8066C119.597 22.5605 119.143 22.2207 118.779 21.7871C118.416 21.3477 118.144 20.8379 117.962 20.2578C117.78 19.6719 117.689 19.0449 117.689 18.377V18.1221C117.689 17.4482 117.78 16.8213 117.962 16.2412C118.144 15.6553 118.416 15.1455 118.779 14.7119C119.143 14.2725 119.597 13.9297 120.142 13.6836C120.687 13.4375 121.325 13.3145 122.058 13.3145C122.837 13.3145 123.52 13.4639 124.105 13.7627C124.697 14.0615 125.16 14.4893 125.494 15.0459C125.834 15.5967 126.007 16.25 126.013 17.0059H123.631C123.625 16.6895 123.558 16.4023 123.429 16.1445C123.306 15.8867 123.124 15.6816 122.884 15.5293C122.649 15.3711 122.359 15.292 122.014 15.292C121.645 15.292 121.343 15.3711 121.108 15.5293C120.874 15.6816 120.692 15.8926 120.563 16.1621C120.435 16.4258 120.344 16.7275 120.291 17.0674C120.244 17.4014 120.221 17.7529 120.221 18.1221V18.377C120.221 18.7461 120.244 19.1006 120.291 19.4404C120.338 19.7803 120.426 20.082 120.555 20.3457C120.689 20.6094 120.874 20.8174 121.108 20.9697C121.343 21.1221 121.647 21.1982 122.022 21.1982ZM132.139 13.4902V15.2832H126.602V13.4902H132.139ZM127.973 11.1436H130.504V20.1348C130.504 20.4102 130.539 20.6211 130.609 20.7676C130.686 20.9141 130.797 21.0166 130.943 21.0752C131.09 21.1279 131.274 21.1543 131.497 21.1543C131.655 21.1543 131.796 21.1484 131.919 21.1367C132.048 21.1191 132.156 21.1016 132.244 21.084L132.253 22.9473C132.036 23.0176 131.802 23.0732 131.55 23.1143C131.298 23.1553 131.02 23.1758 130.715 23.1758C130.158 23.1758 129.672 23.085 129.256 22.9033C128.846 22.7158 128.529 22.417 128.307 22.0068C128.084 21.5967 127.973 21.0576 127.973 20.3896V11.1436ZM136.252 13.4902V23H133.712V13.4902H136.252ZM133.554 11.0117C133.554 10.6426 133.683 10.3379 133.94 10.0977C134.198 9.85742 134.544 9.7373 134.978 9.7373C135.405 9.7373 135.748 9.85742 136.006 10.0977C136.27 10.3379 136.401 10.6426 136.401 11.0117C136.401 11.3809 136.27 11.6855 136.006 11.9258C135.748 12.166 135.405 12.2861 134.978 12.2861C134.544 12.2861 134.198 12.166 133.94 11.9258C133.683 11.6855 133.554 11.3809 133.554 11.0117ZM141.578 21.1543L143.688 13.4902H146.333L143.125 23H141.525L141.578 21.1543ZM140.128 13.4902L142.246 21.1631L142.29 23H140.682L137.474 13.4902H140.128ZM151.721 23.1758C150.982 23.1758 150.32 23.0586 149.734 22.8242C149.148 22.584 148.65 22.2529 148.24 21.8311C147.836 21.4092 147.525 20.9199 147.309 20.3633C147.092 19.8008 146.983 19.2031 146.983 18.5703V18.2188C146.983 17.498 147.086 16.8389 147.291 16.2412C147.496 15.6436 147.789 15.125 148.17 14.6855C148.557 14.2461 149.025 13.9092 149.576 13.6748C150.127 13.4346 150.748 13.3145 151.439 13.3145C152.113 13.3145 152.711 13.4258 153.232 13.6484C153.754 13.8711 154.19 14.1875 154.542 14.5977C154.899 15.0078 155.169 15.5 155.351 16.0742C155.532 16.6426 155.623 17.2754 155.623 17.9727V19.0273H148.064V17.3398H153.136V17.1465C153.136 16.7949 153.071 16.4814 152.942 16.2061C152.819 15.9248 152.632 15.7021 152.38 15.5381C152.128 15.374 151.806 15.292 151.413 15.292C151.079 15.292 150.792 15.3652 150.552 15.5117C150.312 15.6582 150.115 15.8633 149.963 16.127C149.816 16.3906 149.705 16.7012 149.629 17.0586C149.559 17.4102 149.523 17.7969 149.523 18.2188V18.5703C149.523 18.9512 149.576 19.3027 149.682 19.625C149.793 19.9473 149.948 20.2256 150.147 20.46C150.353 20.6943 150.599 20.876 150.886 21.0049C151.179 21.1338 151.51 21.1982 151.879 21.1982C152.336 21.1982 152.761 21.1104 153.153 20.9346C153.552 20.7529 153.895 20.4805 154.182 20.1172L155.412 21.4531C155.213 21.7402 154.94 22.0156 154.595 22.2793C154.255 22.543 153.845 22.7598 153.364 22.9297C152.884 23.0938 152.336 23.1758 151.721 23.1758Z" fill="black"/>
<path d="M68.2461 48.6201V50H61.8477V48.6201H68.2461ZM62.1816 37.2031V50H60.4854V37.2031H62.1816ZM71.709 40.4902V50H70.0742V40.4902H71.709ZM69.9512 37.9678C69.9512 37.7041 70.0303 37.4814 70.1885 37.2998C70.3525 37.1182 70.5928 37.0273 70.9092 37.0273C71.2197 37.0273 71.457 37.1182 71.6211 37.2998C71.791 37.4814 71.876 37.7041 71.876 37.9678C71.876 38.2197 71.791 38.4365 71.6211 38.6182C71.457 38.7939 71.2197 38.8818 70.9092 38.8818C70.5928 38.8818 70.3525 38.7939 70.1885 38.6182C70.0303 38.4365 69.9512 38.2197 69.9512 37.9678ZM75.9453 42.5205V50H74.3193V40.4902H75.8574L75.9453 42.5205ZM75.5586 44.8848L74.8818 44.8584C74.8877 44.208 74.9844 43.6074 75.1719 43.0566C75.3594 42.5 75.623 42.0166 75.9629 41.6064C76.3027 41.1963 76.707 40.8799 77.1758 40.6572C77.6504 40.4287 78.1748 40.3145 78.749 40.3145C79.2178 40.3145 79.6396 40.3789 80.0146 40.5078C80.3896 40.6309 80.709 40.8301 80.9727 41.1055C81.2422 41.3809 81.4473 41.7383 81.5879 42.1777C81.7285 42.6113 81.7988 43.1416 81.7988 43.7686V50H80.1641V43.751C80.1641 43.2529 80.0908 42.8545 79.9443 42.5557C79.7979 42.251 79.584 42.0312 79.3027 41.8965C79.0215 41.7559 78.6758 41.6855 78.2656 41.6855C77.8613 41.6855 77.4922 41.7705 77.1582 41.9404C76.8301 42.1104 76.5459 42.3447 76.3057 42.6436C76.0713 42.9424 75.8867 43.2852 75.752 43.6719C75.623 44.0527 75.5586 44.457 75.5586 44.8848ZM85.9033 36.5V50H84.2686V36.5H85.9033ZM91.7129 40.4902L87.5645 44.9287L85.2441 47.3369L85.1123 45.6055L86.7734 43.6191L89.7266 40.4902H91.7129ZM90.2275 50L86.835 45.4648L87.6787 44.0146L92.1436 50H90.2275ZM97.1621 50.1758C96.5 50.1758 95.8994 50.0645 95.3604 49.8418C94.8271 49.6133 94.3672 49.2939 93.9805 48.8838C93.5996 48.4736 93.3066 47.9873 93.1016 47.4248C92.8965 46.8623 92.7939 46.2471 92.7939 45.5791V45.21C92.7939 44.4365 92.9082 43.748 93.1367 43.1445C93.3652 42.5352 93.6758 42.0195 94.0684 41.5977C94.4609 41.1758 94.9062 40.8564 95.4043 40.6396C95.9023 40.4229 96.418 40.3145 96.9512 40.3145C97.6309 40.3145 98.2168 40.4316 98.709 40.666C99.207 40.9004 99.6143 41.2285 99.9307 41.6504C100.247 42.0664 100.481 42.5586 100.634 43.127C100.786 43.6895 100.862 44.3047 100.862 44.9727V45.7021H93.7607V44.375H99.2363V44.252C99.2129 43.8301 99.125 43.4199 98.9727 43.0215C98.8262 42.623 98.5918 42.2949 98.2695 42.0371C97.9473 41.7793 97.5078 41.6504 96.9512 41.6504C96.582 41.6504 96.2422 41.7295 95.9316 41.8877C95.6211 42.04 95.3545 42.2686 95.1318 42.5732C94.9092 42.8779 94.7363 43.25 94.6133 43.6895C94.4902 44.1289 94.4287 44.6357 94.4287 45.21V45.5791C94.4287 46.0303 94.4902 46.4551 94.6133 46.8535C94.7422 47.2461 94.9268 47.5918 95.167 47.8906C95.4131 48.1895 95.709 48.4238 96.0547 48.5938C96.4062 48.7637 96.8047 48.8486 97.25 48.8486C97.8242 48.8486 98.3105 48.7314 98.709 48.4971C99.1074 48.2627 99.4561 47.9492 99.7549 47.5566L100.739 48.3389C100.534 48.6494 100.273 48.9453 99.957 49.2266C99.6406 49.5078 99.251 49.7363 98.7881 49.9121C98.3311 50.0879 97.7891 50.1758 97.1621 50.1758ZM108.755 48.1543V36.5H110.39V50H108.896L108.755 48.1543ZM102.356 45.3506V45.166C102.356 44.4395 102.444 43.7803 102.62 43.1885C102.802 42.5908 103.057 42.0781 103.385 41.6504C103.719 41.2227 104.114 40.8945 104.571 40.666C105.034 40.4316 105.55 40.3145 106.118 40.3145C106.716 40.3145 107.237 40.4199 107.683 40.6309C108.134 40.8359 108.515 41.1377 108.825 41.5361C109.142 41.9287 109.391 42.4033 109.572 42.96C109.754 43.5166 109.88 44.1465 109.95 44.8496V45.6582C109.886 46.3555 109.76 46.9824 109.572 47.5391C109.391 48.0957 109.142 48.5703 108.825 48.9629C108.515 49.3555 108.134 49.6572 107.683 49.8682C107.231 50.0732 106.704 50.1758 106.101 50.1758C105.544 50.1758 105.034 50.0557 104.571 49.8154C104.114 49.5752 103.719 49.2383 103.385 48.8047C103.057 48.3711 102.802 47.8613 102.62 47.2754C102.444 46.6836 102.356 46.042 102.356 45.3506ZM103.991 45.166V45.3506C103.991 45.8252 104.038 46.2705 104.132 46.6865C104.231 47.1025 104.384 47.4688 104.589 47.7852C104.794 48.1016 105.055 48.3506 105.371 48.5322C105.688 48.708 106.065 48.7959 106.505 48.7959C107.044 48.7959 107.486 48.6816 107.832 48.4531C108.184 48.2246 108.465 47.9229 108.676 47.5479C108.887 47.1729 109.051 46.7656 109.168 46.3262V44.208C109.098 43.8857 108.995 43.5752 108.86 43.2764C108.731 42.9717 108.562 42.7021 108.351 42.4678C108.146 42.2275 107.891 42.0371 107.586 41.8965C107.287 41.7559 106.933 41.6855 106.522 41.6855C106.077 41.6855 105.693 41.7793 105.371 41.9668C105.055 42.1484 104.794 42.4004 104.589 42.7227C104.384 43.0391 104.231 43.4082 104.132 43.8301C104.038 44.2461 103.991 44.6914 103.991 45.166Z" fill="#1C2541"/>
<path d="M125.393 48.6201V50H118.994V48.6201H125.393ZM119.328 37.2031V50H117.632V37.2031H119.328ZM128.855 40.4902V50H127.221V40.4902H128.855ZM127.098 37.9678C127.098 37.7041 127.177 37.4814 127.335 37.2998C127.499 37.1182 127.739 37.0273 128.056 37.0273C128.366 37.0273 128.604 37.1182 128.768 37.2998C128.938 37.4814 129.022 37.7041 129.022 37.9678C129.022 38.2197 128.938 38.4365 128.768 38.6182C128.604 38.7939 128.366 38.8818 128.056 38.8818C127.739 38.8818 127.499 38.7939 127.335 38.6182C127.177 38.4365 127.098 38.2197 127.098 37.9678ZM137.003 47.4775C137.003 47.2432 136.95 47.0264 136.845 46.8271C136.745 46.6221 136.537 46.4375 136.221 46.2734C135.91 46.1035 135.441 45.957 134.814 45.834C134.287 45.7227 133.81 45.5908 133.382 45.4385C132.96 45.2861 132.6 45.1016 132.301 44.8848C132.008 44.668 131.782 44.4131 131.624 44.1201C131.466 43.8271 131.387 43.4844 131.387 43.0918C131.387 42.7168 131.469 42.3623 131.633 42.0283C131.803 41.6943 132.04 41.3984 132.345 41.1406C132.655 40.8828 133.027 40.6807 133.461 40.5342C133.895 40.3877 134.378 40.3145 134.911 40.3145C135.673 40.3145 136.323 40.4492 136.862 40.7188C137.401 40.9883 137.814 41.3486 138.102 41.7998C138.389 42.2451 138.532 42.7402 138.532 43.2852H136.906C136.906 43.0215 136.827 42.7666 136.669 42.5205C136.517 42.2686 136.291 42.0605 135.992 41.8965C135.699 41.7324 135.339 41.6504 134.911 41.6504C134.46 41.6504 134.094 41.7207 133.812 41.8613C133.537 41.9961 133.335 42.1689 133.206 42.3799C133.083 42.5908 133.021 42.8135 133.021 43.0479C133.021 43.2236 133.051 43.3818 133.109 43.5225C133.174 43.6572 133.285 43.7832 133.443 43.9004C133.602 44.0117 133.824 44.1172 134.111 44.2168C134.398 44.3164 134.765 44.416 135.21 44.5156C135.989 44.6914 136.631 44.9023 137.135 45.1484C137.639 45.3945 138.014 45.6963 138.26 46.0537C138.506 46.4111 138.629 46.8447 138.629 47.3545C138.629 47.7705 138.541 48.1514 138.365 48.4971C138.195 48.8428 137.946 49.1416 137.618 49.3936C137.296 49.6396 136.909 49.833 136.458 49.9736C136.013 50.1084 135.512 50.1758 134.955 50.1758C134.117 50.1758 133.408 50.0264 132.828 49.7275C132.248 49.4287 131.809 49.042 131.51 48.5674C131.211 48.0928 131.062 47.5918 131.062 47.0645H132.696C132.72 47.5098 132.849 47.8643 133.083 48.1279C133.317 48.3857 133.604 48.5703 133.944 48.6816C134.284 48.7871 134.621 48.8398 134.955 48.8398C135.4 48.8398 135.772 48.7812 136.071 48.6641C136.376 48.5469 136.607 48.3857 136.766 48.1807C136.924 47.9756 137.003 47.7412 137.003 47.4775ZM144.746 40.4902V41.7383H139.604V40.4902H144.746ZM141.345 38.1787H142.971V47.6445C142.971 47.9668 143.021 48.21 143.12 48.374C143.22 48.5381 143.349 48.6465 143.507 48.6992C143.665 48.752 143.835 48.7783 144.017 48.7783C144.151 48.7783 144.292 48.7666 144.438 48.7432C144.591 48.7139 144.705 48.6904 144.781 48.6729L144.79 50C144.661 50.041 144.491 50.0791 144.28 50.1143C144.075 50.1553 143.826 50.1758 143.533 50.1758C143.135 50.1758 142.769 50.0967 142.435 49.9385C142.101 49.7803 141.834 49.5166 141.635 49.1475C141.441 48.7725 141.345 48.2686 141.345 47.6357V38.1787Z" fill="#5BC0BE"/>
<path d="M22 39.5C22 43.0899 19.0899 46 15.5 46C11.9101 46 9 43.0899 9 39.5C9 35.9101 49.4101 4.5 53 4.5C56.5899 4.5 22 35.9101 22 39.5Z" fill="#1C2541"/>
</svg>
